<svg xmlns="http://www.w3.org/2000/svg" width="208.18" height="115.449" viewBox="0 0 208.18 115.449"><defs><style>.a{fill:#fff;}</style></defs><g transform="translate(-89.885 -83.589)"><path class="a" d="M199.189,117.977H191.5v-7.795a1.532,1.532,0,0,0-1.533-1.532h-7.4a1.532,1.532,0,0,0-1.532,1.532v7.795h-7.581a1.532,1.532,0,0,0-1.533,1.532V126.8a1.532,1.532,0,0,0,1.533,1.532h7.795v7.58a1.533,1.533,0,0,0,1.533,1.532h7.183a1.532,1.532,0,0,0,1.533-1.532v-7.794h7.688a1.534,1.534,0,0,0,1.533-1.533v-7.076A1.533,1.533,0,0,0,199.189,117.977Z"/><path class="a" d="M231.771,87.375a17.947,17.947,0,0,0-3.916-2.481c-.131-.13-.261-.13-.392-.261a5.468,5.468,0,0,0-2.742-1.044,2.2,2.2,0,0,0-1.3.392,3.386,3.386,0,0,0-1.567,2.741,2.9,2.9,0,0,0,1.7,2.089,3.088,3.088,0,0,0,1.045.261,2.634,2.634,0,0,0,1.436-.392,3.089,3.089,0,0,1,1.044-.261c.914,0,1.959,1.175,2.873,3.133,1.175,2.741-.131,6-1.306,8.877l-.783,1.958c-1.045,2.741-2.089,5.613-3.134,8.355a2.51,2.51,0,0,0-1.436,1.958c-.914,5.874-3.916,6.4-4.83,6.4h-.261c-1.437,0-2.612-1.045-3.525-2.872l-.392-.653a11.716,11.716,0,0,1-.914-2.872,2.3,2.3,0,0,0-1.175-1.7.99.99,0,0,0-.261-.522c-1.436-4.047-3.4-9.4-5.092-14.752a5.967,5.967,0,0,1,1.828-6.527c.522-.391,1.044-.783,1.567-.652.261,0,.391.13.652.261a3.85,3.85,0,0,0,1.306.391h.131a2.935,2.935,0,0,0,3.133-2.741,2.657,2.657,0,0,0-.783-1.958,2.293,2.293,0,0,0-2.089-.653,5.474,5.474,0,0,0-2.089.522l-1.175.392a8.3,8.3,0,0,0-5.223,4.177,10.6,10.6,0,0,0-.783,8.224c1.567,4.83,3.264,9.922,4.961,15.143a2.594,2.594,0,0,0-.13,1.436,20.665,20.665,0,0,0,1.175,4.047,12.061,12.061,0,0,0,4.439,5.483l1.566.783h.523a19.419,19.419,0,0,1-.262,2.742,26.856,26.856,0,0,1-5.875,14.229,29.558,29.558,0,0,1-35.641,8.093l-1.306-.652-.783.13-1.306.261a15.887,15.887,0,0,1-3.394.783,3.606,3.606,0,0,1-1.175.131l-.653.131a20.44,20.44,0,0,1-6.267-.131h-.261c-.391,0-.653-.131-.914-.131l3.656-3.655.914-.914,2.219-2.61-1.958-2.742a29.4,29.4,0,0,1-5.222-21.017,28.407,28.407,0,0,1,6.266-14.49A28.962,28.962,0,0,1,183.727,93.38a5.855,5.855,0,0,0,5.091,3.263,5.613,5.613,0,1,0,0-11.226,5.787,5.787,0,0,0-5.222,3.394,33.192,33.192,0,0,0-23.5,12.662,34.261,34.261,0,0,0-1.3,40.991l-.392.391-4.178,4.047a4.27,4.27,0,0,0-1.175,4.177c.653,1.828,2.35,3,5.353,3.4h.261a28.767,28.767,0,0,0,7.442.13l.522-.13c.392,0,.914-.131,1.436-.131,1.306-.261,2.481-.522,3.786-.914a33.3,33.3,0,0,0,15.014,3.264,33.97,33.97,0,0,0,26.5-12.793,33.554,33.554,0,0,0,7.181-16.84,29.843,29.843,0,0,0,.261-3.394,8.617,8.617,0,0,0,4.7-3.264,16.811,16.811,0,0,0,2.872-7.049v-1.045c.13-.522.392-1.044.522-1.7.653-1.958,1.436-4.047,2.089-6,.783-2.349,1.7-4.7,2.481-7.18a10.727,10.727,0,0,0,.652-3.655,8.094,8.094,0,0,0-2.35-6.4Z"/><path class="a" d="M98.7,177.382a5.3,5.3,0,0,1,2.974.915,6.85,6.85,0,0,1,2.243,2.47,7.452,7.452,0,0,1,0,6.924,6.993,6.993,0,0,1-2.243,2.486,5.236,5.236,0,0,1-2.974.93H93.089l.3-.549v6.315A1.9,1.9,0,0,1,92.9,198.2a1.655,1.655,0,0,1-1.281.534,1.616,1.616,0,0,1-1.25-.534,1.89,1.89,0,0,1-.489-1.326V179.242a1.823,1.823,0,0,1,1.861-1.86Zm0,10.249a1.7,1.7,0,0,0,1.129-.489,3.852,3.852,0,0,0,.915-1.265,3.857,3.857,0,0,0,0-3.28,3.729,3.729,0,0,0-.915-1.235,1.72,1.72,0,0,0-1.129-.473H93.027l.366-.549v7.778l-.336-.487Z"/><path class="a" d="M121.028,182.109a1.782,1.782,0,0,1,1.313.519,1.816,1.816,0,0,1,.517,1.341v12.9a1.83,1.83,0,0,1-.517,1.326,1.879,1.879,0,0,1-2.624,0,1.828,1.828,0,0,1-.519-1.326v-1.495l.672.274a1.715,1.715,0,0,1-.428.961,5.817,5.817,0,0,1-1.158,1.113,7.111,7.111,0,0,1-1.725.931,5.937,5.937,0,0,1-2.15.381,6.984,6.984,0,0,1-3.813-1.082,7.617,7.617,0,0,1-2.7-2.99,10.221,10.221,0,0,1,0-8.785,7.7,7.7,0,0,1,2.669-2.989,6.716,6.716,0,0,1,3.722-1.083,7.054,7.054,0,0,1,2.409.4,7.233,7.233,0,0,1,1.907,1.006,5.815,5.815,0,0,1,1.25,1.236,1.965,1.965,0,0,1,.443,1.051l-1.1.4v-2.227a1.828,1.828,0,0,1,.519-1.326A1.752,1.752,0,0,1,121.028,182.109Zm-6.161,13.574a4.125,4.125,0,0,0,2.349-.672,4.511,4.511,0,0,0,1.57-1.83,5.828,5.828,0,0,0,.564-2.592,5.905,5.905,0,0,0-.564-2.623,4.533,4.533,0,0,0-1.57-1.831,4.14,4.14,0,0,0-2.349-.67,4.082,4.082,0,0,0-2.318.67,4.545,4.545,0,0,0-1.572,1.831,5.919,5.919,0,0,0-.564,2.623,5.841,5.841,0,0,0,.564,2.592,4.523,4.523,0,0,0,1.572,1.83A4.068,4.068,0,0,0,114.867,195.683Z"/><path class="a" d="M127.007,182.719h7.229a1.668,1.668,0,0,1,1.708,1.708,1.567,1.567,0,0,1-.488,1.174,1.682,1.682,0,0,1-1.22.474h-7.229a1.668,1.668,0,0,1-1.708-1.709,1.572,1.572,0,0,1,.488-1.174A1.682,1.682,0,0,1,127.007,182.719Zm3.263-3.813a1.707,1.707,0,0,1,1.3.534,1.859,1.859,0,0,1,.5,1.327v13.574a1.329,1.329,0,0,0,.168.7.964.964,0,0,0,.458.4,1.59,1.59,0,0,0,.625.122,1.626,1.626,0,0,0,.671-.137,1.682,1.682,0,0,1,.7-.138,1.03,1.03,0,0,1,.777.4,1.645,1.645,0,0,1-.58,2.5,3.864,3.864,0,0,1-2,.549,10.525,10.525,0,0,1-1.418-.106,3.844,3.844,0,0,1-1.464-.519,3.156,3.156,0,0,1-1.143-1.267,5,5,0,0,1-.458-2.348V180.767a1.824,1.824,0,0,1,1.86-1.861Z"/><path class="a" d="M140.885,180.431a2.422,2.422,0,0,1-1.464-.335,1.431,1.431,0,0,1-.426-1.19v-.579a1.354,1.354,0,0,1,.472-1.205,2.607,2.607,0,0,1,1.449-.321,2.5,2.5,0,0,1,1.495.336,1.437,1.437,0,0,1,.427,1.19v.579a1.377,1.377,0,0,1-.458,1.2A2.67,2.67,0,0,1,140.885,180.431Zm1.862,16.442a1.829,1.829,0,0,1-.52,1.326,1.878,1.878,0,0,1-2.623,0,1.827,1.827,0,0,1-.518-1.326v-12.6a1.828,1.828,0,0,1,.518-1.327,1.878,1.878,0,0,1,2.623,0,1.829,1.829,0,0,1,.52,1.327Z"/><path class="a" d="M154.032,199.038a8.97,8.97,0,0,1-4.5-1.082,7.476,7.476,0,0,1-2.928-2.945,8.6,8.6,0,0,1-1.021-4.209,9.254,9.254,0,0,1,1.113-4.682,7.882,7.882,0,0,1,2.912-2.974,7.525,7.525,0,0,1,3.814-1.037,6.939,6.939,0,0,1,2.943.641,8.037,8.037,0,0,1,2.456,1.754,8.536,8.536,0,0,1,1.692,2.577,7.835,7.835,0,0,1,.626,3.111,1.57,1.57,0,0,1-.58,1.19,1.941,1.941,0,0,1-1.281.458H147.626l-.914-3.051H157.9l-.67.61v-.823a2.786,2.786,0,0,0-.626-1.586,4.073,4.073,0,0,0-1.4-1.113,3.979,3.979,0,0,0-1.784-.412,5.761,5.761,0,0,0-1.708.244,3.269,3.269,0,0,0-1.373.823,3.985,3.985,0,0,0-.915,1.556,7.7,7.7,0,0,0-.335,2.47,5.334,5.334,0,0,0,.685,2.791,4.693,4.693,0,0,0,4.072,2.334,7.093,7.093,0,0,0,1.8-.183,4.038,4.038,0,0,0,1.083-.443c.275-.172.524-.32.748-.442a2.32,2.32,0,0,1,1.037-.274,1.535,1.535,0,0,1,1.555,1.525,1.9,1.9,0,0,1-.854,1.494,7.08,7.08,0,0,1-2.226,1.175A8.862,8.862,0,0,1,154.032,199.038Z"/><path class="a" d="M172.913,182.109a5.373,5.373,0,0,1,3.431.945,4.82,4.82,0,0,1,1.618,2.517,12.916,12.916,0,0,1,.441,3.493v7.809a1.828,1.828,0,0,1-.519,1.326,1.878,1.878,0,0,1-2.623,0,1.827,1.827,0,0,1-.518-1.326v-7.809a5.919,5.919,0,0,0-.26-1.815,2.5,2.5,0,0,0-.93-1.3,3.231,3.231,0,0,0-1.921-.488,4.036,4.036,0,0,0-2.059.488,3.329,3.329,0,0,0-1.281,1.3,3.715,3.715,0,0,0-.443,1.815v7.809a1.831,1.831,0,0,1-.518,1.326,1.878,1.878,0,0,1-2.623,0,1.828,1.828,0,0,1-.519-1.326v-12.6a1.828,1.828,0,0,1,.519-1.327,1.878,1.878,0,0,1,2.623,0,1.832,1.832,0,0,1,.518,1.327v1.312l-.458-.092a6.083,6.083,0,0,1,.793-1.113,7.569,7.569,0,0,1,1.221-1.114,6.222,6.222,0,0,1,1.586-.839A5.617,5.617,0,0,1,172.913,182.109Z"/><path class="a" d="M182.551,182.719h7.229a1.668,1.668,0,0,1,1.709,1.708A1.571,1.571,0,0,1,191,185.6a1.686,1.686,0,0,1-1.221.474h-7.229a1.669,1.669,0,0,1-1.709-1.709,1.573,1.573,0,0,1,.489-1.174A1.684,1.684,0,0,1,182.551,182.719Zm3.264-3.813a1.708,1.708,0,0,1,1.3.534,1.862,1.862,0,0,1,.5,1.327v13.574a1.339,1.339,0,0,0,.168.7.964.964,0,0,0,.458.4,1.6,1.6,0,0,0,.626.122,1.622,1.622,0,0,0,.67-.137,1.685,1.685,0,0,1,.7-.138,1.031,1.031,0,0,1,.778.4,1.647,1.647,0,0,1-.58,2.5,3.869,3.869,0,0,1-2,.549,10.5,10.5,0,0,1-1.418-.106,3.843,3.843,0,0,1-1.465-.519,3.163,3.163,0,0,1-1.143-1.267,5,5,0,0,1-.458-2.348V180.767a1.824,1.824,0,0,1,1.861-1.861Z"/><path class="a" d="M218.635,178.419a1.617,1.617,0,0,1,.932,1.25,1.881,1.881,0,0,1-.443,1.555,1.387,1.387,0,0,1-1.022.611,2.368,2.368,0,0,1-1.265-.244,7.846,7.846,0,0,0-1.541-.519,7.652,7.652,0,0,0-1.693-.183,7.863,7.863,0,0,0-2.943.519,6.192,6.192,0,0,0-2.212,1.479,6.416,6.416,0,0,0-1.388,2.273,8.493,8.493,0,0,0-.472,2.9,8.88,8.88,0,0,0,.534,3.234,6.29,6.29,0,0,0,1.478,2.287,5.947,5.947,0,0,0,2.227,1.357,8.447,8.447,0,0,0,2.776.443,9.011,9.011,0,0,0,1.648-.153,5.629,5.629,0,0,0,1.586-.549,2.166,2.166,0,0,1,1.265-.213,1.6,1.6,0,0,1,1.053.64,1.839,1.839,0,0,1,.441,1.571,1.6,1.6,0,0,1-.929,1.174,10.747,10.747,0,0,1-1.632.657,12.619,12.619,0,0,1-1.693.4,11.016,11.016,0,0,1-1.739.137,12.315,12.315,0,0,1-4.163-.7,10.54,10.54,0,0,1-3.508-2.075,9.572,9.572,0,0,1-2.425-3.431,12.005,12.005,0,0,1-.885-4.774,11.374,11.374,0,0,1,.808-4.332,10.055,10.055,0,0,1,2.287-3.43,10.566,10.566,0,0,1,3.494-2.258,11.693,11.693,0,0,1,4.392-.809,11.3,11.3,0,0,1,2.623.306A10.581,10.581,0,0,1,218.635,178.419Z"/><path class="a" d="M230.044,199.038a8.97,8.97,0,0,1-4.5-1.082,7.483,7.483,0,0,1-2.928-2.945,8.584,8.584,0,0,1-1.022-4.209,9.254,9.254,0,0,1,1.114-4.682,7.882,7.882,0,0,1,2.912-2.974,7.528,7.528,0,0,1,3.814-1.037,6.947,6.947,0,0,1,2.944.641,8.056,8.056,0,0,1,2.455,1.754,8.557,8.557,0,0,1,1.693,2.577,7.852,7.852,0,0,1,.625,3.111,1.573,1.573,0,0,1-.58,1.19,1.939,1.939,0,0,1-1.281.458H223.638l-.915-3.051h11.194l-.67.61v-.823a2.792,2.792,0,0,0-.625-1.586,4.089,4.089,0,0,0-1.4-1.113,3.971,3.971,0,0,0-1.783-.412,5.778,5.778,0,0,0-1.709.244,3.281,3.281,0,0,0-1.373.823,4,4,0,0,0-.914,1.556,7.7,7.7,0,0,0-.336,2.47,5.334,5.334,0,0,0,.686,2.791,4.69,4.69,0,0,0,4.072,2.334,7.113,7.113,0,0,0,1.8-.183,4.086,4.086,0,0,0,1.082-.443c.275-.172.523-.32.748-.442a2.32,2.32,0,0,1,1.037-.274,1.537,1.537,0,0,1,1.555,1.525,1.9,1.9,0,0,1-.854,1.494A7.08,7.08,0,0,1,233,198.535,8.871,8.871,0,0,1,230.044,199.038Z"/><path class="a" d="M248.924,182.109a5.376,5.376,0,0,1,3.432.945,4.812,4.812,0,0,1,1.617,2.517,12.954,12.954,0,0,1,.442,3.493v7.809a1.827,1.827,0,0,1-.518,1.326,1.878,1.878,0,0,1-2.623,0,1.82,1.82,0,0,1-.519-1.326v-7.809a5.888,5.888,0,0,0-.26-1.815,2.505,2.505,0,0,0-.93-1.3,3.234,3.234,0,0,0-1.922-.488,4.029,4.029,0,0,0-2.058.488,3.331,3.331,0,0,0-1.282,1.3,3.715,3.715,0,0,0-.443,1.815v7.809a1.827,1.827,0,0,1-.518,1.326,1.878,1.878,0,0,1-2.623,0,1.832,1.832,0,0,1-.519-1.326v-12.6a1.832,1.832,0,0,1,.519-1.327,1.878,1.878,0,0,1,2.623,0,1.828,1.828,0,0,1,.518,1.327v1.312l-.457-.092a6.036,6.036,0,0,1,.793-1.113,7.569,7.569,0,0,1,1.221-1.114,6.2,6.2,0,0,1,1.586-.839A5.612,5.612,0,0,1,248.924,182.109Z"/><path class="a" d="M258.563,182.719h7.229a1.669,1.669,0,0,1,1.709,1.708,1.561,1.561,0,0,1-.489,1.174,1.682,1.682,0,0,1-1.22.474h-7.229a1.665,1.665,0,0,1-1.707-1.709,1.574,1.574,0,0,1,.486-1.174A1.689,1.689,0,0,1,258.563,182.719Zm3.264-3.813a1.707,1.707,0,0,1,1.3.534,1.86,1.86,0,0,1,.5,1.327v13.574a1.329,1.329,0,0,0,.166.7.971.971,0,0,0,.459.4,1.594,1.594,0,0,0,.625.122,1.622,1.622,0,0,0,.67-.137,1.686,1.686,0,0,1,.7-.138,1.03,1.03,0,0,1,.777.4,1.643,1.643,0,0,1-.58,2.5,3.864,3.864,0,0,1-2,.549,10.536,10.536,0,0,1-1.418-.106,3.855,3.855,0,0,1-1.465-.519,3.163,3.163,0,0,1-1.143-1.267,5.021,5.021,0,0,1-.458-2.348V180.767a1.826,1.826,0,0,1,1.861-1.861Z"/><path class="a" d="M272.686,198.733a1.75,1.75,0,0,1-1.312-.534,1.827,1.827,0,0,1-.518-1.326v-12.6a1.828,1.828,0,0,1,.518-1.327,1.878,1.878,0,0,1,2.623,0,1.832,1.832,0,0,1,.519,1.327v2.867L274.3,185.1a4.686,4.686,0,0,1,.87-1.3,5.089,5.089,0,0,1,1.2-.946,5.446,5.446,0,0,1,1.433-.564,6.509,6.509,0,0,1,1.526-.183,2.328,2.328,0,0,1,1.539.519,1.548,1.548,0,0,1,.625,1.219,1.809,1.809,0,0,1-.518,1.45,1.711,1.711,0,0,1-1.129.442,2.525,2.525,0,0,1-1.053-.214,2.6,2.6,0,0,0-1.082-.213,2.655,2.655,0,0,0-1.113.259,3.039,3.039,0,0,0-1.037.809,4.256,4.256,0,0,0-.764,1.357,5.657,5.657,0,0,0-.289,1.906v7.23A1.832,1.832,0,0,1,274,198.2,1.748,1.748,0,0,1,272.686,198.733Z"/><path class="a" d="M290.958,199.038a8.97,8.97,0,0,1-4.5-1.082,7.483,7.483,0,0,1-2.928-2.945,8.584,8.584,0,0,1-1.022-4.209,9.254,9.254,0,0,1,1.114-4.682,7.882,7.882,0,0,1,2.912-2.974,7.528,7.528,0,0,1,3.814-1.037,6.947,6.947,0,0,1,2.944.641,8.044,8.044,0,0,1,2.455,1.754,8.557,8.557,0,0,1,1.693,2.577,7.852,7.852,0,0,1,.625,3.111,1.573,1.573,0,0,1-.58,1.19,1.939,1.939,0,0,1-1.281.458H284.551l-.914-3.051h11.194l-.67.61v-.823a2.792,2.792,0,0,0-.625-1.586,4.1,4.1,0,0,0-1.4-1.113,3.979,3.979,0,0,0-1.784-.412,5.777,5.777,0,0,0-1.709.244,3.282,3.282,0,0,0-1.373.823,4,4,0,0,0-.914,1.556,7.7,7.7,0,0,0-.336,2.47,5.334,5.334,0,0,0,.686,2.791,4.69,4.69,0,0,0,4.072,2.334,7.113,7.113,0,0,0,1.8-.183,4.073,4.073,0,0,0,1.082-.443c.275-.172.523-.32.748-.442a2.32,2.32,0,0,1,1.037-.274A1.537,1.537,0,0,1,297,195.866a1.9,1.9,0,0,1-.854,1.494,7.08,7.08,0,0,1-2.226,1.175A8.871,8.871,0,0,1,290.958,199.038Z"/></g></svg>