<svg xmlns="http://www.w3.org/2000/svg" xmlns:xlink="http://www.w3.org/1999/xlink" width="325.031" height="45.565" viewBox="0 0 325.031 45.565"><defs><style>.a{fill:none;}.b{clip-path:url(#a);}.c{fill:#46c8c2;}.d{fill:#2b7bc2;}.e{fill:#0a3f96;}</style><clipPath id="a"><path class="a" d="M0,.435H325.031V-45.13H0Z" transform="translate(0 45.13)"/></clipPath></defs><g transform="translate(0 45.13)"><g class="b" transform="translate(0 -45.13)"><g transform="translate(286.256 15.621)"><path class="c" d="M.162.056H-4.629V-4.8a.956.956,0,0,0-.955-.955H-10.2a.955.955,0,0,0-.955.955V.056h-4.725a.956.956,0,0,0-.956.955V5.555a.956.956,0,0,0,.956.955h4.858v4.724a.956.956,0,0,0,.955.955h4.478a.956.956,0,0,0,.955-.955V6.376H.162a.955.955,0,0,0,.955-.955V1.011A.956.956,0,0,0,.162.056" transform="translate(16.832 5.758)"/></g><g transform="translate(274.209 0)"><path class="d" d="M.471.023A11.169,11.169,0,0,0-1.97-1.523c-.082-.082-.163-.082-.244-.163a3.4,3.4,0,0,0-1.708-.651,1.368,1.368,0,0,0-.814.244A2.109,2.109,0,0,0-5.713-.384,1.807,1.807,0,0,0-4.656.917,1.914,1.914,0,0,0-4,1.081a1.643,1.643,0,0,0,.9-.244A1.907,1.907,0,0,1-2.458.674c.569,0,1.221.732,1.79,1.953.732,1.708-.082,3.743-.814,5.533L-1.97,9.38c-.651,1.708-1.3,3.5-1.953,5.207a1.566,1.566,0,0,0-.9,1.221c-.569,3.662-2.441,3.987-3.011,3.987h-.163c-.9,0-1.628-.651-2.2-1.79l-.244-.407A7.286,7.286,0,0,1-11,15.807a1.435,1.435,0,0,0-.732-1.057.623.623,0,0,0-.163-.326c-.9-2.522-2.116-5.858-3.174-9.194a3.72,3.72,0,0,1,1.139-4.069c.326-.244.651-.488.977-.407.163,0,.243.082.406.163a2.382,2.382,0,0,0,.815.244h.081A1.829,1.829,0,0,0-9.7-.547a1.656,1.656,0,0,0-.488-1.221,1.428,1.428,0,0,0-1.3-.407,3.415,3.415,0,0,0-1.3.325l-.733.244A5.173,5.173,0,0,0-16.779,1a6.6,6.6,0,0,0-.489,5.126c.976,3.011,2.034,6.184,3.093,9.438a1.62,1.62,0,0,0-.082.9,12.9,12.9,0,0,0,.732,2.522A7.519,7.519,0,0,0-10.758,22.4l.976.488h.325A12.222,12.222,0,0,1-9.619,24.6a16.743,16.743,0,0,1-3.662,8.869,18.106,18.106,0,0,1-16.681,6.672A18.141,18.141,0,0,1-35.5,38.508l-.814-.407-.488.082-.814.163a9.955,9.955,0,0,1-2.116.489,2.267,2.267,0,0,1-.732.081l-.407.082a12.746,12.746,0,0,1-3.906-.082h-.163c-.244,0-.407-.081-.569-.081l2.279-2.279.569-.569,1.383-1.628-1.221-1.708a18.328,18.328,0,0,1-3.255-13.1,17.706,17.706,0,0,1,3.906-9.031A18.055,18.055,0,0,1-29.475,3.765,3.652,3.652,0,0,0-26.3,5.8a3.472,3.472,0,0,0,3.5-3.5,3.473,3.473,0,0,0-3.5-3.5A3.608,3.608,0,0,0-29.555.917,20.692,20.692,0,0,0-44.2,8.811a20.911,20.911,0,0,0-4.476,10.5,21.107,21.107,0,0,0,3.662,15.053l-.243.244-2.6,2.522a2.662,2.662,0,0,0-.732,2.6c.407,1.14,1.465,1.872,3.337,2.116h.163a17.95,17.95,0,0,0,4.638.081l.325-.081c.244,0,.57-.082.9-.082.814-.163,1.546-.325,2.36-.569a19.051,19.051,0,0,0,6.347,1.871,19.107,19.107,0,0,0,3.012.164A21.173,21.173,0,0,0-11,35.254a20.914,20.914,0,0,0,4.476-10.5,18.643,18.643,0,0,0,.163-2.115,5.368,5.368,0,0,0,2.929-2.034,10.476,10.476,0,0,0,1.791-4.394v-.651c.081-.325.243-.65.325-1.057.407-1.221.9-2.522,1.3-3.743C.471,9.3,1.041,7.833,1.53,6.287A6.668,6.668,0,0,0,1.936,4.01,5.05,5.05,0,0,0,.471.023" transform="translate(48.878 2.337)"/></g><g transform="translate(0 7.731)"><path class="e" d="M.109,0A6.876,6.876,0,0,1,3.965,1.187a8.859,8.859,0,0,1,2.908,3.2A9.206,9.206,0,0,1,7.98,8.9a9.123,9.123,0,0,1-1.108,4.47,9.031,9.031,0,0,1-2.908,3.224A6.8,6.8,0,0,1,.109,17.8H-7.169l.4-.713v8.188A2.455,2.455,0,0,1-7.406,27a2.148,2.148,0,0,1-1.662.693A2.1,2.1,0,0,1-10.689,27a2.451,2.451,0,0,1-.633-1.72V2.413A2.339,2.339,0,0,1-10.63.692,2.339,2.339,0,0,1-8.91,0Zm0,13.291a2.2,2.2,0,0,0,1.463-.633A4.991,4.991,0,0,0,2.76,11.016,4.915,4.915,0,0,0,3.234,8.9,4.884,4.884,0,0,0,2.76,6.764a4.832,4.832,0,0,0-1.187-1.6A2.23,2.23,0,0,0,.109,4.549H-7.248l.475-.712V13.924l-.435-.633Z" transform="translate(11.322)"/></g><g transform="translate(22.072 13.862)"><path class="e" d="M.175,0a2.312,2.312,0,0,1,1.7.672,2.364,2.364,0,0,1,.672,1.742V19.146a2.374,2.374,0,0,1-.672,1.72,2.274,2.274,0,0,1-1.7.693,2.271,2.271,0,0,1-1.7-.693,2.37,2.37,0,0,1-.672-1.72V17.207l.87.356a2.233,2.233,0,0,1-.553,1.246,7.547,7.547,0,0,1-1.5,1.444A9.226,9.226,0,0,1-5.62,21.46a7.716,7.716,0,0,1-2.789.494,9.043,9.043,0,0,1-4.944-1.4,9.871,9.871,0,0,1-3.5-3.877A12.121,12.121,0,0,1-18.14,11,12.222,12.222,0,0,1-16.854,5.28a9.981,9.981,0,0,1,3.461-3.875A8.716,8.716,0,0,1-8.567,0,9.16,9.16,0,0,1-5.442.515,9.347,9.347,0,0,1-2.97,1.82a7.467,7.467,0,0,1,1.621,1.6A2.547,2.547,0,0,1-.774,4.787L-2.2,5.3V2.414A2.372,2.372,0,0,1-1.526.694,2.268,2.268,0,0,1,.175,0m-7.99,17.6a5.373,5.373,0,0,0,3.046-.87A5.87,5.87,0,0,0-2.733,14.36,7.575,7.575,0,0,0-2,11a7.672,7.672,0,0,0-.732-3.4A5.877,5.877,0,0,0-4.769,5.222a5.372,5.372,0,0,0-3.046-.869,5.3,5.3,0,0,0-3.007.869,5.869,5.869,0,0,0-2.036,2.373,7.672,7.672,0,0,0-.732,3.4,7.575,7.575,0,0,0,.732,3.362,5.862,5.862,0,0,0,2.036,2.373,5.3,5.3,0,0,0,3.007.87" transform="translate(18.14 0)"/></g><g transform="translate(45.924 9.71)"><path class="e" d="M.021.047H9.4a2.162,2.162,0,0,1,2.215,2.215,2.031,2.031,0,0,1-.632,1.523A2.185,2.185,0,0,1,9.4,4.4H.021A2.142,2.142,0,0,1-1.56,3.766a2.147,2.147,0,0,1-.633-1.583A2.038,2.038,0,0,1-1.56.66,2.178,2.178,0,0,1,.021.047M4.254-4.9a2.209,2.209,0,0,1,1.681.692,2.413,2.413,0,0,1,.653,1.72v17.6a1.707,1.707,0,0,0,.218.91,1.243,1.243,0,0,0,.593.514,2.181,2.181,0,0,0,1.681-.02,2.2,2.2,0,0,1,.91-.177A1.334,1.334,0,0,1,11,16.858a2.136,2.136,0,0,1-.751,3.244,5.014,5.014,0,0,1-2.591.712,13.675,13.675,0,0,1-1.84-.137A4.994,4.994,0,0,1,3.917,20a4.108,4.108,0,0,1-1.482-1.642,6.5,6.5,0,0,1-.594-3.046v-17.8a2.337,2.337,0,0,1,.692-1.72A2.338,2.338,0,0,1,4.254-4.9" transform="translate(2.193 4.897)"/></g><g transform="translate(63.683 6.98)"><path class="e" d="M.023.045a3.143,3.143,0,0,1-1.9-.435A1.858,1.858,0,0,1-2.43-1.933v-.751a1.755,1.755,0,0,1,.614-1.563A3.393,3.393,0,0,1,.063-4.662,3.225,3.225,0,0,1,2-4.227a1.861,1.861,0,0,1,.553,1.543v.751A1.787,1.787,0,0,1,1.962-.37,3.474,3.474,0,0,1,.023.045M2.436,21.366a2.374,2.374,0,0,1-.672,1.72,2.274,2.274,0,0,1-1.7.693,2.271,2.271,0,0,1-1.7-.693,2.37,2.37,0,0,1-.672-1.72V5.03a2.374,2.374,0,0,1,.672-1.721,2.27,2.27,0,0,1,1.7-.692,2.273,2.273,0,0,1,1.7.692A2.378,2.378,0,0,1,2.436,5.03Z" transform="translate(2.43 4.662)"/></g><g transform="translate(72.227 13.862)"><path class="e" d="M.1.21a11.61,11.61,0,0,1-5.835-1.4,9.692,9.692,0,0,1-3.8-3.816,11.149,11.149,0,0,1-1.326-5.459,12,12,0,0,1,1.444-6.072A10.221,10.221,0,0,1-5.631-20.4,9.757,9.757,0,0,1-.687-21.744a9,9,0,0,1,3.817.831,10.437,10.437,0,0,1,3.183,2.275A11.079,11.079,0,0,1,8.51-15.3a10.174,10.174,0,0,1,.811,4.035A2.033,2.033,0,0,1,8.57-9.718a2.516,2.516,0,0,1-1.662.593H-8.2L-9.389-13.08H5.129l-.871.791v-1.068a3.614,3.614,0,0,0-.81-2.057,5.3,5.3,0,0,0-1.82-1.444,5.182,5.182,0,0,0-2.314-.534,7.5,7.5,0,0,0-2.215.317,4.226,4.226,0,0,0-1.779,1.068A5.167,5.167,0,0,0-5.868-13.99a9.974,9.974,0,0,0-.435,3.2,6.918,6.918,0,0,0,.889,3.62A6.074,6.074,0,0,0-3.119-4.912a6.109,6.109,0,0,0,2.987.77A9.186,9.186,0,0,0,2.2-4.379a5.273,5.273,0,0,0,1.4-.572c.355-.224.679-.415.969-.574a3.016,3.016,0,0,1,1.345-.355,1.921,1.921,0,0,1,1.443.594A1.926,1.926,0,0,1,7.937-3.9,2.469,2.469,0,0,1,6.829-1.965,9.206,9.206,0,0,1,3.941-.442,11.5,11.5,0,0,1,.1.21" transform="translate(10.853 21.744)"/></g><g transform="translate(96.356 13.862)"><path class="e" d="M.108,0A6.964,6.964,0,0,1,4.559,1.227a6.243,6.243,0,0,1,2.1,3.263,16.73,16.73,0,0,1,.574,4.53V19.146a2.374,2.374,0,0,1-.672,1.72,2.274,2.274,0,0,1-1.7.693,2.271,2.271,0,0,1-1.7-.693,2.366,2.366,0,0,1-.672-1.72V9.02a7.711,7.711,0,0,0-.336-2.353A3.254,3.254,0,0,0,.939,4.985a4.2,4.2,0,0,0-2.493-.632,5.242,5.242,0,0,0-2.67.632A4.321,4.321,0,0,0-5.884,6.667,4.826,4.826,0,0,0-6.458,9.02V19.146a2.374,2.374,0,0,1-.672,1.72,2.272,2.272,0,0,1-1.7.693,2.269,2.269,0,0,1-1.7-.693,2.37,2.37,0,0,1-.672-1.72V2.809a2.373,2.373,0,0,1,.672-1.72A2.268,2.268,0,0,1-8.831.4a2.272,2.272,0,0,1,1.7.692,2.377,2.377,0,0,1,.672,1.72v1.7l-.594-.118A7.781,7.781,0,0,1-6.022,2.948,9.92,9.92,0,0,1-4.44,1.5,8.06,8.06,0,0,1-2.384.416,7.271,7.271,0,0,1,.108,0" transform="translate(11.204)"/></g><g transform="translate(117.953 9.71)"><path class="e" d="M.021.047H9.4a2.162,2.162,0,0,1,2.215,2.215,2.031,2.031,0,0,1-.632,1.523A2.185,2.185,0,0,1,9.4,4.4H.021A2.142,2.142,0,0,1-1.56,3.766a2.147,2.147,0,0,1-.633-1.583A2.038,2.038,0,0,1-1.56.66,2.178,2.178,0,0,1,.021.047M4.254-4.9a2.209,2.209,0,0,1,1.681.692,2.413,2.413,0,0,1,.653,1.72v17.6a1.707,1.707,0,0,0,.218.91,1.243,1.243,0,0,0,.593.514,2.181,2.181,0,0,0,1.681-.02,2.2,2.2,0,0,1,.91-.177A1.334,1.334,0,0,1,11,16.858a2.136,2.136,0,0,1-.751,3.244,5.014,5.014,0,0,1-2.591.712,13.675,13.675,0,0,1-1.84-.137A4.994,4.994,0,0,1,3.917,20a4.108,4.108,0,0,1-1.482-1.642,6.5,6.5,0,0,1-.594-3.046v-17.8a2.337,2.337,0,0,1,.692-1.72A2.338,2.338,0,0,1,4.254-4.9" transform="translate(2.193 4.897)"/></g><g transform="translate(141.054 7.535)"><path class="e" d="M.2.015A2.1,2.1,0,0,1,1.4,1.637,2.437,2.437,0,0,1,.831,3.653a1.8,1.8,0,0,1-1.326.792,3.071,3.071,0,0,1-1.642-.317,10.211,10.211,0,0,0-2-.672,9.959,9.959,0,0,0-2.2-.236,10.2,10.2,0,0,0-3.816.672,8.025,8.025,0,0,0-2.868,1.917,8.3,8.3,0,0,0-1.8,2.948,11.006,11.006,0,0,0-.614,3.758,11.541,11.541,0,0,0,.693,4.192,8.2,8.2,0,0,0,1.918,2.967,7.717,7.717,0,0,0,2.888,1.76,10.951,10.951,0,0,0,3.6.573,11.6,11.6,0,0,0,2.136-.2A7.3,7.3,0,0,0-2.136,21.1a2.815,2.815,0,0,1,1.642-.278,2.078,2.078,0,0,1,1.365.832,2.389,2.389,0,0,1,.572,2.036A2.083,2.083,0,0,1,.238,25.212a13.983,13.983,0,0,1-2.117.85,16.259,16.259,0,0,1-2.194.515,14.262,14.262,0,0,1-2.256.177,15.953,15.953,0,0,1-5.4-.91,13.64,13.64,0,0,1-4.547-2.69,12.435,12.435,0,0,1-3.146-4.45,15.58,15.58,0,0,1-1.146-6.19A14.732,14.732,0,0,1-19.52,6.9a13.027,13.027,0,0,1,2.966-4.451A13.685,13.685,0,0,1-12.024-.479a15.126,15.126,0,0,1,5.7-1.048,14.632,14.632,0,0,1,3.4.395A13.823,13.823,0,0,1,.2.015" transform="translate(20.568 1.527)"/></g><g transform="translate(165.656 13.862)"><path class="e" d="M.1.21a11.61,11.61,0,0,1-5.835-1.4,9.692,9.692,0,0,1-3.8-3.816,11.149,11.149,0,0,1-1.326-5.459,12,12,0,0,1,1.444-6.072A10.221,10.221,0,0,1-5.631-20.4,9.757,9.757,0,0,1-.687-21.744a9,9,0,0,1,3.817.831,10.437,10.437,0,0,1,3.183,2.275A11.079,11.079,0,0,1,8.51-15.3a10.174,10.174,0,0,1,.811,4.035A2.033,2.033,0,0,1,8.57-9.718a2.516,2.516,0,0,1-1.662.593H-8.2L-9.389-13.08H5.129l-.871.791v-1.068a3.614,3.614,0,0,0-.81-2.057,5.3,5.3,0,0,0-1.82-1.444,5.182,5.182,0,0,0-2.314-.534,7.5,7.5,0,0,0-2.215.317,4.226,4.226,0,0,0-1.779,1.068A5.167,5.167,0,0,0-5.868-13.99a9.974,9.974,0,0,0-.435,3.2,6.918,6.918,0,0,0,.889,3.62A6.074,6.074,0,0,0-3.119-4.912a6.109,6.109,0,0,0,2.987.77A9.186,9.186,0,0,0,2.2-4.379a5.273,5.273,0,0,0,1.4-.572c.355-.224.679-.415.969-.574a3.016,3.016,0,0,1,1.345-.355,1.921,1.921,0,0,1,1.443.594A1.926,1.926,0,0,1,7.937-3.9,2.469,2.469,0,0,1,6.829-1.965,9.206,9.206,0,0,1,3.941-.442,11.5,11.5,0,0,1,.1.21" transform="translate(10.853 21.744)"/></g><g transform="translate(189.786 13.862)"><path class="e" d="M.108,0A6.964,6.964,0,0,1,4.559,1.227a6.243,6.243,0,0,1,2.1,3.263,16.73,16.73,0,0,1,.574,4.53V19.146a2.374,2.374,0,0,1-.672,1.72,2.274,2.274,0,0,1-1.7.693,2.271,2.271,0,0,1-1.7-.693,2.366,2.366,0,0,1-.672-1.72V9.02a7.711,7.711,0,0,0-.336-2.353A3.254,3.254,0,0,0,.939,4.985a4.2,4.2,0,0,0-2.493-.632,5.242,5.242,0,0,0-2.67.632A4.321,4.321,0,0,0-5.884,6.667,4.826,4.826,0,0,0-6.458,9.02V19.146a2.374,2.374,0,0,1-.672,1.72,2.272,2.272,0,0,1-1.7.693,2.269,2.269,0,0,1-1.7-.693,2.37,2.37,0,0,1-.672-1.72V2.809a2.373,2.373,0,0,1,.672-1.72A2.268,2.268,0,0,1-8.831.4a2.272,2.272,0,0,1,1.7.692,2.377,2.377,0,0,1,.672,1.72v1.7l-.594-.118A7.781,7.781,0,0,1-6.022,2.948,9.92,9.92,0,0,1-4.44,1.5,8.06,8.06,0,0,1-2.384.416,7.271,7.271,0,0,1,.108,0" transform="translate(11.204)"/></g><g transform="translate(211.383 9.71)"><path class="e" d="M.021.047H9.4a2.162,2.162,0,0,1,2.215,2.215,2.031,2.031,0,0,1-.632,1.523A2.185,2.185,0,0,1,9.4,4.4H.021A2.142,2.142,0,0,1-1.56,3.766a2.147,2.147,0,0,1-.633-1.583A2.038,2.038,0,0,1-1.56.66,2.178,2.178,0,0,1,.021.047M4.254-4.9a2.209,2.209,0,0,1,1.681.692,2.413,2.413,0,0,1,.653,1.72v17.6a1.707,1.707,0,0,0,.218.91,1.243,1.243,0,0,0,.593.514,2.181,2.181,0,0,0,1.681-.02,2.2,2.2,0,0,1,.91-.177A1.334,1.334,0,0,1,11,16.858a2.136,2.136,0,0,1-.751,3.244,5.014,5.014,0,0,1-2.591.712,13.675,13.675,0,0,1-1.84-.137A4.994,4.994,0,0,1,3.917,20a4.108,4.108,0,0,1-1.482-1.642,6.5,6.5,0,0,1-.594-3.046v-17.8a2.337,2.337,0,0,1,.692-1.72A2.338,2.338,0,0,1,4.254-4.9" transform="translate(2.193 4.897)"/></g><g transform="translate(229.538 13.862)"><path class="e" d="M.023.206a2.267,2.267,0,0,1-1.7-.693,2.37,2.37,0,0,1-.672-1.72V-18.543a2.372,2.372,0,0,1,.672-1.72,2.271,2.271,0,0,1,1.7-.693,2.274,2.274,0,0,1,1.7.693,2.376,2.376,0,0,1,.672,1.72v3.718l-.278-2.65a6.164,6.164,0,0,1,1.127-1.681,6.755,6.755,0,0,1,1.563-1.227,7.116,7.116,0,0,1,1.86-.731,8.481,8.481,0,0,1,1.977-.238,3.027,3.027,0,0,1,2,.673,2.008,2.008,0,0,1,.811,1.582,2.345,2.345,0,0,1-.672,1.879,2.21,2.21,0,0,1-1.464.574,3.282,3.282,0,0,1-1.365-.278,3.39,3.39,0,0,0-1.4-.277,3.439,3.439,0,0,0-1.444.336A3.971,3.971,0,0,0,3.76-15.814a5.535,5.535,0,0,0-.988,1.76A7.311,7.311,0,0,0,2.4-11.582v9.375a2.374,2.374,0,0,1-.672,1.72,2.27,2.27,0,0,1-1.7.693" transform="translate(2.351 21.353)"/></g><g transform="translate(244.647 13.862)"><path class="e" d="M.1.21a11.61,11.61,0,0,1-5.835-1.4,9.692,9.692,0,0,1-3.8-3.816,11.149,11.149,0,0,1-1.326-5.459,12,12,0,0,1,1.444-6.072A10.221,10.221,0,0,1-5.631-20.4,9.757,9.757,0,0,1-.687-21.744a9,9,0,0,1,3.817.831,10.437,10.437,0,0,1,3.183,2.275A11.079,11.079,0,0,1,8.51-15.3a10.174,10.174,0,0,1,.811,4.035A2.033,2.033,0,0,1,8.57-9.718a2.516,2.516,0,0,1-1.662.593H-8.2L-9.389-13.08H5.129l-.871.791v-1.068a3.614,3.614,0,0,0-.81-2.057,5.3,5.3,0,0,0-1.82-1.444,5.182,5.182,0,0,0-2.314-.534,7.5,7.5,0,0,0-2.215.317,4.226,4.226,0,0,0-1.779,1.068A5.167,5.167,0,0,0-5.868-13.99a9.974,9.974,0,0,0-.435,3.2,6.918,6.918,0,0,0,.889,3.62A6.074,6.074,0,0,0-3.119-4.912a6.109,6.109,0,0,0,2.987.77A9.186,9.186,0,0,0,2.2-4.379a5.273,5.273,0,0,0,1.4-.572c.355-.224.679-.415.969-.574a3.016,3.016,0,0,1,1.345-.355,1.921,1.921,0,0,1,1.443.594A1.926,1.926,0,0,1,7.937-3.9,2.469,2.469,0,0,1,6.829-1.965,9.206,9.206,0,0,1,3.941-.442,11.5,11.5,0,0,1,.1.21" transform="translate(10.853 21.744)"/></g></g></g></svg>