<svg xmlns="http://www.w3.org/2000/svg" xmlns:xlink="http://www.w3.org/1999/xlink" width="1296.626" height="1296.626" viewBox="0 0 1296.626 1296.626"><defs><style>.a{fill:#e9e9e9;}.b{opacity:0.33;clip-path:url(#a);}</style><clipPath id="a"><path class="a" d="M0,724.414H935.435V-173.858H0Z" transform="translate(0 173.858)"/></clipPath></defs><g class="b" transform="translate(661.452 1296.626) rotate(-135)"><g transform="translate(0.001 -0.001)"><path class="a" d="M396.248,21.086C344.526-1.642,284.97-18.77,236.97,10.277c-78.73,47.647-81.7,151.513-102.292,237.312-16.4,68.33-49.329,133.11-95.587,188.057C7.276,473.436-30.888,506.854-56.828,548.42-78.6,583.31-91,623.017-95.322,663.25c-7.077,65.906,9.872,137.543,61.181,183.01,56.96,50.479,146.937,58.5,220.184,32.457s124.826-34.865,230.219-108.072C501.656,711.326,523.6,677.98,629.078,583.7,744.342,480.679,754.759,443.009,816.225,340.781c47.424-78.875,15.253-185.614-57.469-245.124S649.463,45.3,553.565,55.1c-38.881,3.978-91.092-4.908-157.318-34.012" transform="translate(96.854 5.061)"/></g></g></svg>