
        <svg xmlns="http://www.w3.org/2000/svg" xmlns:xlink="http://www.w3.org/1999/xlink" version="1.1" width="3300" height="1843.1976667217" viewBox="0 0 3300 1843.1976667217">
			
			<g transform="scale(15) translate(10, 10)">
				<defs id="SvgjsDefs1273"><linearGradient id="SvgjsLinearGradient1278"><stop id="SvgjsStop1279" stop-color="#ef4136" offset="0"/><stop id="SvgjsStop1280" stop-color="#fbb040" offset="1"/></linearGradient></defs><g id="SvgjsG1274" featureKey="symbolFeature-0" transform="matrix(1.2329029298251326,0,0,1.2329029298251326,61.0688852906175,-4.93161171930053)" fill="#fff"><g xmlns="http://www.w3.org/2000/svg"><polygon points="30.3,45.9 30.3,37.2 38.9,37.2 38.9,30.6 30.3,30.6 30.3,21.9 23.4,21.9 23.4,30.6 14.9,30.6 14.9,37.4 23.6,37.4    23.6,45.9  "/><path d="M61.4,6.9c-0.9-0.8-2-1.4-3-1.9c-0.1-0.1-0.2-0.1-0.3-0.2C57.5,4.4,56.7,4,56,4c-0.4,0-0.7,0.1-1,0.3   c-0.8,0.6-1.2,1.3-1.2,2.1C53.9,7,54.3,7.6,55.1,8c0.3,0.1,0.5,0.2,0.8,0.2c0.4,0,0.8-0.1,1.1-0.3c0.3-0.1,0.5-0.2,0.8-0.2   c0.7,0,1.5,0.9,2.2,2.4c0.9,2.1-0.1,4.6-1,6.8c-0.2,0.5-0.4,1-0.6,1.5c-0.8,2.1-1.6,4.3-2.4,6.4c-0.6,0.3-1,0.8-1.1,1.5   c-0.7,4.5-3,4.9-3.7,4.9c0,0-0.1,0-0.1,0l-0.1,0c-1.1,0-2-0.8-2.7-2.2L48,28.5c-0.5-1.1-0.7-2.1-0.7-2.2c-0.1-0.6-0.4-1-0.9-1.3   c0-0.1-0.1-0.3-0.2-0.4c-1.1-3.1-2.6-7.2-3.9-11.3c-0.6-1.9-0.1-3.6,1.4-5c0.4-0.3,0.8-0.6,1.2-0.5c0.2,0,0.3,0.1,0.5,0.2   c0.3,0.1,0.6,0.3,1,0.3h0.1c1.2,0,2.4-0.8,2.4-2.1c0-0.6-0.2-1.1-0.6-1.5c-0.4-0.4-0.9-0.6-1.6-0.5c-0.6,0-1.1,0.2-1.6,0.4   c-0.3,0.1-0.6,0.2-0.9,0.3c-1.7,0.4-3.1,1.6-4,3.2c-1,1.9-1.3,4.2-0.6,6.3c1.2,3.7,2.5,7.6,3.8,11.6c-0.1,0.3-0.2,0.7-0.1,1.1   c0.2,1.1,0.5,2.1,0.9,3.1c0.7,1.6,1.8,3.2,3.4,4.2c0.4,0.2,0.8,0.4,1.2,0.6l0.4,0c0,0.7-0.1,1.4-0.2,2.1C48.7,41,47,44.8,44.5,48   c-5,6.2-12.7,9.3-20.5,8.2c-2.4-0.3-4.7-1-6.8-2l-1-0.5l-0.6,0.1L14.6,54c-0.9,0.3-1.7,0.5-2.6,0.6c-0.3,0.1-0.6,0.1-0.9,0.1   l-0.5,0.1c-1.4,0.2-3,0.2-4.8-0.1l-0.2,0c-0.3,0-0.5-0.1-0.7-0.1l2.8-2.8c0.3-0.3,0.5-0.5,0.7-0.7l1.7-2L8.6,47   c-3.3-4.7-4.8-10.4-4-16.1c0.5-4.1,2.2-7.9,4.8-11.1c3.9-4.8,9.2-7.7,15.2-8.3c0.7,1.4,2.2,2.5,3.9,2.5c2.4,0,4.3-1.9,4.3-4.3   c0-2.4-1.9-4.3-4.3-4.3c-1.8,0-3.3,1.1-4,2.6c-7.1,0.6-13.5,4-18,9.7c-3,3.7-4.9,8.2-5.5,12.9c-0.9,6.5,0.7,13.1,4.5,18.5   c-0.1,0.1-0.2,0.2-0.3,0.3L2,52.5c-0.9,0.9-1.2,2.1-0.9,3.2c0.5,1.4,1.8,2.3,4.1,2.6l0.2,0c2.1,0.3,4,0.3,5.7,0.1l0.4-0.1   c0.3,0,0.7-0.1,1.1-0.1c1-0.2,1.9-0.4,2.9-0.7l0,0c2.4,1.2,5.1,2,7.8,2.3C24.6,60,25.8,60,27,60c7.8,0,15.2-3.5,20.3-9.8   c3-3.7,4.9-8.2,5.5-12.9c0.1-0.9,0.2-1.7,0.2-2.6c1.4-0.3,2.8-1.4,3.6-2.5c1.2-1.5,1.8-3.5,2.2-5.4c0-0.3,0-0.6,0-0.8   c0.1-0.4,0.3-0.8,0.4-1.3c0.5-1.5,1.1-3.1,1.6-4.6c0.6-1.8,1.3-3.6,1.9-5.5c0.3-0.8,0.5-1.8,0.5-2.8C63.3,9.8,62.6,8,61.4,6.9z"/></g></g><g id="SvgjsG1275" featureKey="nameFeature-0" transform="matrix(0.47854929230770127,0,0,0.47854929230770127,-1.7479972030102398,83.55093715659675)" fill="#fff"><path d="M15.391 11.777000000000001 c5.5273 0 8.9648 4.1016 8.9648 9.1211 c0 5.1367 -3.4375 8.9844 -8.9648 8.9844 l-5.8789 0 l0 10.117 l-5.8594 0 l0 -28.223 l11.738 0 z M14.414 24.98 c2.9297 0 4.2969 -1.6211 4.2969 -4.1602 c0 -2.4414 -1.3672 -4.1406 -4.2969 -4.1406 l-4.9023 0 l0 8.3008 l4.9023 0 z M55.429625 40 l-2.0508 -5.8203 l-11.855 0 l-2.0508 5.8203 l-5.9961 0 l10.391 -28.223 l7.168 0 l10.391 28.223 l-5.9961 0 z M43.242625000000004 29.277 l8.418 0 l-4.1992 -11.973 z M89.29734375 11.777000000000001 l0 5.1563 l-6.6992 0 l0 23.066 l-5.8008 0 l0 -23.066 l-6.7383 0 l0 -5.1563 l19.238 0 z M100.99605 40 l0 -28.223 l5.8594 0 l0 28.223 l-5.8594 0 z M137.77390625 16.934 l-10.469 0 l0 6.4063 l9.2773 0 l0 5.0977 l-9.2773 0 l0 6.3867 l10.469 0 l0 5.1758 l-16.367 0 l0 -28.223 l16.367 0 l0 5.1563 z M170.351875 11.777000000000001 l5.8398 0 l0 28.223 l-6.7773 0 l-12.5 -20.176 l0 20.176 l-5.8398 0 l0 -28.223 l6.6992 0 l12.578 20.059 l0 -20.059 z M207.129375 11.777000000000001 l0 5.1563 l-6.6992 0 l0 23.066 l-5.8008 0 l0 -23.066 l-6.7383 0 l0 -5.1563 l19.238 0 z M248.98403125 40.39063 c-8.3008 0 -14.434 -5.6445 -14.434 -14.512 s6.1328 -14.492 14.434 -14.492 c6.2891 0 11.328 3.2227 13.34 8.5742 l-5.4688 1.9922 c-1.25 -3.2813 -4.2383 -5.1758 -7.8711 -5.1758 c-4.8633 0 -8.5938 3.3984 -8.5938 9.1016 s3.7305 9.1211 8.5938 9.1211 c3.6328 0 6.6211 -1.9141 7.8711 -5.1953 l5.4688 1.9922 c-2.0117 5.3516 -7.0508 8.5938 -13.34 8.5938 z M290.7621875 16.934 l-10.469 0 l0 6.4063 l9.2773 0 l0 5.0977 l-9.2773 0 l0 6.3867 l10.469 0 l0 5.1758 l-16.367 0 l0 -28.223 l16.367 0 l0 5.1563 z M323.34015625 11.777000000000001 l5.8398 0 l0 28.223 l-6.7773 0 l-12.5 -20.176 l0 20.176 l-5.8398 0 l0 -28.223 l6.6992 0 l12.578 20.059 l0 -20.059 z M360.11765625 11.777000000000001 l0 5.1563 l-6.6992 0 l0 23.066 l-5.8008 0 l0 -23.066 l-6.7383 0 l0 -5.1563 l19.238 0 z M386.7190625 40 l-7.3438 -12.422 l-1.6992 0 l0 12.422 l-5.8594 0 l0 -28.223 l10.234 0 c6.3867 0 9.082 3.7695 9.082 8.4375 c0 3.7891 -2.1484 6.25 -5.9766 7.0703 l8.4961 12.715 l-6.9336 0 z M377.6757625 16.641 l0 6.7383 l3.457 0 c3.125 0 4.3945 -1.3281 4.3945 -3.3594 c0 -2.0117 -1.2695 -3.3789 -4.3945 -3.3789 l-3.457 0 z M421.5825 16.934 l-10.469 0 l0 6.4063 l9.2773 0 l0 5.0977 l-9.2773 0 l0 6.3867 l10.469 0 l0 5.1758 l-16.367 0 l0 -28.223 l16.367 0 l0 5.1563 z"/></g>
			</g>
		</svg>
	